<svg version="1.1" id="Layer_1" xmlns="http://www.w3.org/2000/svg" xmlns:xlink="http://www.w3.org/1999/xlink" x="0px" y="0px"
	 width="100%" viewBox="0 0 96 96" enable-background="new 0 0 96 96" xml:space="preserve">
<path fill="#000000" opacity="1.000000" stroke="none" 
	d="
M51.000000,97.000000 
	C34.000004,97.000000 17.500006,97.000000 1.000007,97.000000 
	C1.000004,65.000008 1.000004,33.000019 1.000002,1.000020 
	C32.999985,1.000013 64.999969,1.000013 96.999969,1.000006 
	C96.999977,32.999981 96.999977,64.999962 96.999985,96.999969 
	C81.833336,97.000000 66.666664,97.000000 51.000000,97.000000 
M30.752872,77.000000 
	C42.408298,76.999992 54.063774,76.979782 65.719124,77.010185 
	C70.208763,77.021889 72.934280,75.017365 72.967255,70.398331 
	C73.059967,57.411495 73.058876,44.423141 72.964272,31.436333 
	C72.934814,27.392725 70.597374,25.053463 66.552673,25.034376 
	C49.569405,24.954237 32.585491,24.978024 15.601931,25.016668 
	C11.522326,25.025951 9.069489,27.246033 9.048817,31.281597 
	C8.944265,51.691635 9.000723,72.102501 9.000723,93.872208 
	C14.085711,88.659103 18.454536,84.438370 22.499065,79.926910 
	C24.580084,77.605644 26.796520,76.509033 30.752872,77.000000 
M81.000000,36.500259 
	C81.000000,43.263977 81.000000,50.027699 81.000000,56.732971 
	C83.948334,56.732971 86.350220,56.732971 89.000000,56.732971 
	C89.000000,43.352100 89.013023,30.236689 88.994286,17.121323 
	C88.985458,10.946026 87.016960,9.009650 80.755196,9.004718 
	C63.455589,8.991093 46.155960,8.994001 28.856369,9.012408 
	C27.590836,9.013755 26.325493,9.191757 25.333027,9.266949 
	C25.333027,12.067387 25.333027,14.466631 25.333027,17.224136 
	C44.045609,17.224136 62.427036,17.224136 81.000000,17.224136 
	C81.000000,23.562124 81.000000,29.531317 81.000000,36.500259 
z"/>
<path fill="#FFFFFF" opacity="1.000000" stroke="none" 
	d="
M30.290436,77.000000 
	C26.796520,76.509033 24.580084,77.605644 22.499065,79.926910 
	C18.454536,84.438370 14.085711,88.659103 9.000723,93.872208 
	C9.000723,72.102501 8.944265,51.691635 9.048817,31.281597 
	C9.069489,27.246033 11.522326,25.025951 15.601931,25.016668 
	C32.585491,24.978024 49.569405,24.954237 66.552673,25.034376 
	C70.597374,25.053463 72.934814,27.392725 72.964272,31.436333 
	C73.058876,44.423141 73.059967,57.411495 72.967255,70.398331 
	C72.934280,75.017365 70.208763,77.021889 65.719124,77.010185 
	C54.063774,76.979782 42.408298,76.999992 30.290436,77.000000 
M45.499592,69.000000 
	C51.922070,69.000000 58.344547,69.000000 64.744110,69.000000 
	C64.744110,56.723907 64.744110,45.000870 64.744110,33.228050 
	C48.770031,33.228050 33.052887,33.228050 17.367378,33.228050 
	C17.367378,45.929188 17.367378,58.398861 17.367378,69.969299 
	C26.504204,68.050507 35.564732,69.427338 45.499592,69.000000 
z"/>
<path fill="#FFFFFF" opacity="1.000000" stroke="none" 
	d="
M81.000000,36.000381 
	C81.000000,29.531317 81.000000,23.562124 81.000000,17.224136 
	C62.427036,17.224136 44.045609,17.224136 25.333027,17.224136 
	C25.333027,14.466631 25.333027,12.067387 25.333027,9.266949 
	C26.325493,9.191757 27.590836,9.013755 28.856369,9.012408 
	C46.155960,8.994001 63.455589,8.991093 80.755196,9.004718 
	C87.016960,9.009650 88.985458,10.946026 88.994286,17.121323 
	C89.013023,30.236689 89.000000,43.352100 89.000000,56.732971 
	C86.350220,56.732971 83.948334,56.732971 81.000000,56.732971 
	C81.000000,50.027699 81.000000,43.263977 81.000000,36.000381 
z"/>
<path fill="#000000" opacity="1.000000" stroke="none" 
	d="
M44.999710,69.000000 
	C35.564732,69.427338 26.504204,68.050507 17.367378,69.969299 
	C17.367378,58.398861 17.367378,45.929188 17.367378,33.228050 
	C33.052887,33.228050 48.770031,33.228050 64.744110,33.228050 
	C64.744110,45.000870 64.744110,56.723907 64.744110,69.000000 
	C58.344547,69.000000 51.922070,69.000000 44.999710,69.000000 
z"/>
</svg>