<?xml version="1.0" encoding="UTF-8"?>
<svg version="1.1" xmlns="http://www.w3.org/2000/svg" width="96" height="96">
<path d="M0 0 C1.10794922 -0.01260864 2.21589844 -0.02521729 3.35742188 -0.03820801 C4.54916016 -0.03011108 5.74089844 -0.02201416 6.96875 -0.01367188 C8.19658203 -0.01749878 9.42441406 -0.02132568 10.68945312 -0.02526855 C13.28516459 -0.02799029 15.88090336 -0.02061099 18.4765625 -0.00390625 C22.45374599 0.01749738 26.42912282 -0.0037015 30.40625 -0.02929688 C32.92708733 -0.02665365 35.44792353 -0.02152878 37.96875 -0.01367188 C39.16048828 -0.0217688 40.35222656 -0.02986572 41.58007812 -0.03820801 C43.24200195 -0.01929504 43.24200195 -0.01929504 44.9375 0 C45.91138672 0.00318237 46.88527344 0.00636475 47.88867188 0.00964355 C51.24797774 0.67098306 52.42887012 1.80300396 54.46875 4.51757812 C54.97668457 6.64208984 54.97668457 6.64208984 54.98632812 8.94726562 C54.99893677 9.81496582 55.01154541 10.68266602 55.02453613 11.57666016 C55.01643921 12.50591309 55.00834229 13.43516602 55 14.39257812 C55.00574036 15.83479736 55.00574036 15.83479736 55.01159668 17.30615234 C55.01431602 19.33692473 55.00695329 21.36773212 54.99023438 23.3984375 C54.96882525 26.50665383 54.99003546 29.61255868 55.015625 32.72070312 C55.01298173 34.69466656 55.00785676 36.66862856 55 38.64257812 C55.00809692 39.57183105 55.01619385 40.50108398 55.02453613 41.45849609 C54.96980437 45.22502043 54.86486245 47.79915008 53.02856445 51.12963867 C49.05234119 53.28555944 45.41476771 52.82672586 40.98046875 52.59960938 C39.05670587 52.56045331 37.13286994 52.52476252 35.20898438 52.4921875 C32.19566611 52.42268878 29.18972723 52.33178315 26.17944336 52.1784668 C13.11571236 51.38875863 13.11571236 51.38875863 1.74072266 56.93701172 C-1.59878984 60.10918964 -4.58913302 63.51343353 -7.40080261 67.1594696 C-7.77385025 67.60764542 -8.14689789 68.05582123 -8.53125 68.51757812 C-8.86125 68.51757812 -9.19125 68.51757812 -9.53125 68.51757812 C-9.62395357 60.24215517 -9.69501616 51.96694935 -9.73849869 43.69113541 C-9.75936884 39.84826561 -9.78767506 36.0057512 -9.83300781 32.16308594 C-9.87648745 28.45426697 -9.90039142 24.74578971 -9.91075897 21.03673553 C-9.91814667 19.62211477 -9.93257343 18.2075126 -9.95417023 16.79303741 C-9.98322615 14.8111039 -9.98488408 12.82882613 -9.98535156 10.84667969 C-9.99867523 9.15457367 -9.99867523 9.15457367 -10.01226807 7.42828369 C-9.53125 4.51757812 -9.53125 4.51757812 -7.84857178 2.15435791 C-5.00685576 0.14718594 -3.45918495 0.01130359 0 0 Z M-1.53125 8.51757812 C-1.53125 21.38757813 -1.53125 34.25757813 -1.53125 47.51757812 C-0.54125 46.85757813 0.44875 46.19757813 1.46875 45.51757812 C3.53788757 45.23910522 3.53788757 45.23910522 5.94018555 45.19873047 C6.84089279 45.17886078 7.74160004 45.15899109 8.66960144 45.13851929 C9.63843765 45.12696808 10.60727386 45.11541687 11.60546875 45.10351562 C12.60004593 45.08414948 13.59462311 45.06478333 14.61933899 45.04483032 C17.7982219 44.98501653 20.97714098 44.93864174 24.15625 44.89257812 C26.31056273 44.85440002 28.46486017 44.81534839 30.61914062 44.77539062 C35.90226451 44.6776681 41.18522409 44.59811322 46.46875 44.51757812 C46.46875 32.63757812 46.46875 20.75757812 46.46875 8.51757812 C30.62875 8.51757812 14.78875 8.51757812 -1.53125 8.51757812 Z " fill="#FFFFFF" transform="translate(17.53125,23.482421875)"/>
<path d="M0 0 C7.75385058 -0.09272074 15.50757106 -0.16377508 23.26183701 -0.20724869 C26.86258286 -0.22811513 30.46294916 -0.25641421 34.06347656 -0.30175781 C37.53887913 -0.34525125 41.01391688 -0.36914421 44.48957062 -0.37950897 C46.45945784 -0.39048615 48.42919847 -0.421707 50.39886475 -0.45318604 C52.20027924 -0.45363922 52.20027924 -0.45363922 54.03808594 -0.45410156 C55.09509705 -0.46298401 56.15210815 -0.47186646 57.2411499 -0.48101807 C60.74444145 0.12979675 61.91027966 1.15721618 64 4 C64.48101807 6.15142822 64.48101807 6.15142822 64.45410156 8.49316406 C64.45379944 9.37377502 64.45349731 10.25438599 64.45318604 11.16168213 C64.43254089 12.10348328 64.41189575 13.04528442 64.390625 14.015625 C64.38496521 14.98659119 64.37930542 15.95755737 64.37347412 16.95794678 C64.35110311 20.05580169 64.30090473 23.15249533 64.25 26.25 C64.22993597 28.35154578 64.21168503 30.45310972 64.1953125 32.5546875 C64.1512358 37.7035717 64.08220258 42.85158903 64 48 C61.36 48 58.72 48 56 48 C56 34.8 56 21.6 56 8 C37.52 8 19.04 8 0 8 C0 5.36 0 2.72 0 0 Z " fill="#FFFFFF" transform="translate(24,8)"/>
</svg>
