<?xml version="1.0" encoding="UTF-8"?>
<svg version="1.1" xmlns="http://www.w3.org/2000/svg" width="24" height="24">
<path d="M0 0 C5.28 0 10.56 0 16 0 C16 4.29 16 8.58 16 13 C13.15375 13.1546875 13.15375 13.1546875 10.25 13.3125 C5.30363682 13.58132409 4.1703818 13.87221365 0 17 C0 11.39 0 5.78 0 0 Z M2 2 C2 4.97 2 7.94 2 11 C5.96 11 9.92 11 14 11 C14 8.03 14 5.06 14 2 C10.04 2 6.08 2 2 2 Z " fill="#FFFFFF" transform="translate(2,6)"/>
<path d="M0 0 C5.28 0 10.56 0 16 0 C16 3.96 16 7.92 16 12 C15.34 12 14.68 12 14 12 C14 8.7 14 5.4 14 2 C9.38 2 4.76 2 0 2 C0 1.34 0 0.68 0 0 Z " fill="#FFFFFF" transform="translate(6,2)"/>
</svg>
